<!--?xml version="1.0" encoding="utf-8"?-->
<!-- Generator: Adobe Illustrator 22.1.0, SVG Export Plug-In . SVG Version: 6.00 Build 0)  -->
<svg version="1.1" id="_x32_" xmlns="http://www.w3.org/2000/svg" xmlns:xlink="http://www.w3.org/1999/xlink" x="0px" y="0px" viewBox="0 0 800 800" style="enable-background:new 0 0 800 800;" xml:space="preserve">
<g>
	<path d="M790.2,400.8v-1.7h-31.7l-47.6-177.7l27.4-15.8l-0.8-1.4L710.1,220L580,89.9l15.8-27.4l-1.4-0.8l-15.8,27.4L400.8,41.5V9.8
		h-1.7v31.7L221.5,89.1l-15.8-27.4l-1.4,0.8L220,89.9L89.9,220l-27.4-15.8l-0.8,1.4l27.4,15.8L41.5,399.2H9.8v1.7h31.7l47.6,177.7
		l-27.4,15.8l0.8,1.4L89.9,580L220,710.1l-15.8,27.4l1.4,0.8l15.8-27.4l177.7,47.6v31.7h1.7v-31.7l177.7-47.6l15.8,27.4l1.4-0.8
		L580,710.1L710.1,580l27.4,15.8l0.8-1.4l-27.4-15.8l47.6-177.7L790.2,400.8L790.2,400.8z M669.5,554.7l39.6-68.5v91.4L669.5,554.7z
		 M708.3,578.9l-79.1,45.7l39.6-68.5L708.3,578.9z M668.1,553.8l-12.1-7l-0.8,1.4l12.1,7l-41,71l-71,41l-7-12.1l-1.4,0.8l7,12.1
		l-71,41h-82v-14h-1.7v14h-82l-71-41l7-12.1l-1.4-0.8l-7,12.1l-71-41l-41-71l12.1-7l-0.8-1.4l-12.1,7l-41-71v-82h14v-1.7h-14v-82
		l41-71l12.1,7l0.8-1.4l-12.1-7l41-71l71-41l7,12.1l1.4-0.8l-7-12.1l71-41h82v14h1.7v-14h82l71,41l-7,12.1l1.4,0.8l7-12.1l71,41
		l41,71l-12.1,7l0.8,1.4l12.1-7l41,71v82h-14v1.7h14v82L668.1,553.8z M556.1,668.7l68.5-39.6l-45.7,79.1L556.1,668.7z M577.5,709.1
		h-91.4l68.5-39.6L577.5,709.1z M399.2,756.4L320,710.8h79.1L399.2,756.4L399.2,756.4z M400.8,710.8H480l-79.1,45.7V710.8z
		 M245.3,669.5l68.5,39.6h-91.4L245.3,669.5z M221.1,708.3l-45.7-79.1l68.5,39.6L221.1,708.3z M131.3,556.1l39.6,68.5l-79.1-45.7
		L131.3,556.1z M90.9,577.5v-91.4l39.6,68.5L90.9,577.5z M89.2,400.8v79.1l-45.7-79.1H89.2z M43.6,399.2L89.2,320v79.1L43.6,399.2
		L43.6,399.2z M130.5,245.3l-39.6,68.5v-91.4L130.5,245.3z M91.7,221.1l79.1-45.7l-39.6,68.5L91.7,221.1z M243.9,131.3l-68.5,39.6
		l45.7-79.1L243.9,131.3z M222.5,90.9h91.4l-68.5,39.6L222.5,90.9z M400.8,43.6L480,89.2h-79.1V43.6z M399.2,89.2H320l79.1-45.7
		L399.2,89.2L399.2,89.2z M578.9,91.7l45.7,79.1l-68.5-39.6L578.9,91.7z M554.7,130.5l-68.5-39.6h91.4L554.7,130.5z M668.7,243.9
		l-39.6-68.5l79.1,45.7L668.7,243.9z M709.1,222.5v91.4l-39.6-68.5L709.1,222.5z M710.8,400.8l45.7,0L710.8,480V400.8z M710.8,399.2
		V320l45.7,79.1L710.8,399.2z M710.8,227.4l44.7,166.8l-44.7-77.4V227.4z M627.5,172.5l-44.7-77.4l122.1,122.1L627.5,172.5z
		 M483.3,89.2l-77.4-44.7l166.8,44.7H483.3z M316.7,89.2h-89.4l166.8-44.7L316.7,89.2z M172.5,172.5l-77.4,44.7L217.2,95.1
		L172.5,172.5z M89.2,316.7l-44.7,77.4l44.7-166.8V316.7z M89.2,483.3v89.4L44.6,405.9L89.2,483.3z M172.5,627.5l44.7,77.4
		L95.1,582.8L172.5,627.5z M316.7,710.8l77.4,44.7l-166.8-44.7H316.7z M483.3,710.8h89.4l-166.8,44.7L483.3,710.8z M627.5,627.5
		l77.4-44.7L582.8,704.9L627.5,627.5z M710.8,483.3l44.7-77.4l-44.7,166.8V483.3z"></path>
	<path d="M790.2,393.5v-0.2H763l-45.3-169.1l23.5-13.6c1.9-1.1,2.9-3,2.9-5.1c0-1-0.3-2-0.8-2.9l-0.8-1.4c-0.8-1.3-2-2.3-3.5-2.7
		c-0.5-0.1-1-0.2-1.5-0.2c-1,0-2,0.3-2.9,0.8L711,212.7L587.3,89l13.6-23.5c0.5-0.9,0.8-1.9,0.8-2.9c0-2-1-4-2.9-5.1l-1.4-0.8
		c-0.9-0.5-1.9-0.8-2.9-0.8c-0.5,0-1,0.1-1.5,0.2c-1.5,0.4-2.8,1.4-3.5,2.7l-13.6,23.5L406.7,37V9.8c0-3.2-2.6-5.8-5.8-5.8h-1.7
		c-3.2,0-5.8,2.6-5.8,5.8V37L224.3,82.3l-13.6-23.5c-1.1-1.9-3-2.9-5.1-2.9c-1,0-2,0.3-2.9,0.8l-1.4,0.8c-1.3,0.8-2.3,2-2.7,3.5
		c-0.1,0.5-0.2,1-0.2,1.5c0,1,0.3,2,0.8,2.9L212.7,89L89,212.7l-23.5-13.6c-0.9-0.5-1.9-0.8-2.9-0.8c-0.5,0-1,0.1-1.5,0.2
		c-1.5,0.4-2.8,1.4-3.5,2.7l-0.8,1.4c-0.5,0.9-0.8,1.9-0.8,2.9c0,2,1,4,2.9,5.1l23.5,13.6L37,393.3l-27.2,0c-3.2,0-5.8,2.6-5.8,5.8
		v1.7c0,3.2,2.6,5.8,5.8,5.8H37l45.3,169.1l-23.5,13.6c-1.3,0.8-2.3,2.1-2.7,3.5c-0.1,0.5-0.2,1-0.2,1.5c0,1,0.3,2,0.8,2.9l0.8,1.4
		c1.1,1.9,3,2.9,5.1,2.9c1,0,2-0.3,2.9-0.8L89,587.3L212.7,711l-13.6,23.5c-0.5,0.9-0.8,1.9-0.8,2.9c0,0.5,0.1,1,0.2,1.5
		c0.4,1.5,1.4,2.8,2.7,3.5l1.4,0.8c0.9,0.5,1.9,0.8,2.9,0.8c2,0,4-1,5.1-2.9l13.6-23.5L393.3,763l0,27.2c0,3.2,2.6,5.8,5.8,5.8h1.7
		c3.2,0,5.8-2.6,5.8-5.8V763l169.1-45.3l13.6,23.5c1.1,1.9,3,2.9,5.1,2.9c1,0,2-0.3,2.9-0.8l1.4-0.8c1.3-0.8,2.3-2,2.7-3.5
		c0.1-0.5,0.2-1,0.2-1.5c0-1-0.3-2-0.8-2.9L587.3,711L711,587.3l23.5,13.6c0.9,0.5,1.9,0.8,2.9,0.8c2,0,4-1,5.1-2.9l0.8-1.4
		c0.5-0.9,0.8-1.9,0.8-2.9c0-0.5-0.1-1-0.2-1.5c-0.4-1.5-1.4-2.8-2.7-3.5l-23.5-13.6L763,406.7h27.2c3.2,0,5.8-2.6,5.8-5.8v-1.7
		c0-3.2-2.6-5.8-5.8-5.8L790.2,393.5l0,0.2c3,0,5.5,2.4,5.5,5.5v1.7c0,3-2.4,5.5-5.5,5.5h-27.5l-45.4,169.6l23.8,13.7
		c1.3,0.7,2.2,1.9,2.5,3.3c0.1,0.5,0.2,0.9,0.2,1.4c0,1-0.2,1.9-0.7,2.7l-0.8,1.4c-1,1.8-2.8,2.7-4.7,2.7c-0.9,0-1.9-0.2-2.7-0.7
		L711,586.8L586.8,711l13.7,23.8c0.5,0.8,0.7,1.8,0.7,2.7c0,0.5-0.1,1-0.2,1.4c-0.4,1.4-1.3,2.6-2.5,3.3l-1.4,0.8
		c-0.9,0.5-1.8,0.7-2.7,0.7c-1.9,0-3.7-1-4.7-2.7l-13.7-23.8l-169.6,45.4v27.5c0,3-2.4,5.5-5.5,5.5h-1.7c-3,0-5.5-2.4-5.5-5.5v-27.5
		l-169.6-45.4L210.4,741c-1,1.8-2.8,2.7-4.7,2.7c-0.9,0-1.9-0.2-2.7-0.7l-1.4-0.8c-1.3-0.7-2.2-1.9-2.5-3.3
		c-0.1-0.5-0.2-0.9-0.2-1.4c0-0.9,0.3-1.9,0.7-2.7l13.7-23.8L89,586.8l-23.8,13.7c-0.9,0.5-1.8,0.7-2.7,0.7c-1.9,0-3.7-1-4.7-2.7
		l-0.8-1.4c-0.5-0.8-0.7-1.8-0.7-2.7c0-0.5,0.1-0.9,0.2-1.4c0.4-1.4,1.3-2.6,2.5-3.3l23.8-13.7L37.3,406.3H9.8c-3,0-5.5-2.4-5.5-5.5
		v-1.7c0-3,2.4-5.5,5.5-5.5h27.5l45.4-169.6L59,210.4c-1.8-1-2.7-2.8-2.7-4.7c0-0.9,0.2-1.9,0.7-2.7l0.8-1.4
		c0.7-1.3,1.9-2.2,3.3-2.5c0.5-0.1,0.9-0.2,1.4-0.2c0.9,0,1.9,0.2,2.7,0.7L89,213.2L213.2,89l-13.7-23.8c-0.5-0.8-0.7-1.8-0.7-2.7
		c0-0.5,0.1-0.9,0.2-1.4c0.4-1.4,1.3-2.6,2.5-3.3l1.4-0.8c0.9-0.5,1.8-0.7,2.7-0.7c1.9,0,3.7,1,4.7,2.7l13.7,23.8l169.6-45.4V9.8
		c0-3,2.4-5.5,5.5-5.5h1.7c3,0,5.5,2.4,5.5,5.5v27.5l169.6,45.4L589.6,59c0.7-1.3,1.9-2.2,3.3-2.5c0.5-0.1,0.9-0.2,1.4-0.2
		c0.9,0,1.9,0.2,2.7,0.7l1.4,0.8c1.7,1,2.7,2.8,2.7,4.7c0,0.9-0.2,1.9-0.7,2.7L586.8,89L711,213.2l23.8-13.7
		c0.8-0.5,1.8-0.7,2.7-0.7c0.5,0,0.9,0.1,1.4,0.2c1.4,0.4,2.6,1.3,3.3,2.5l0.8,1.4c0.5,0.9,0.7,1.8,0.7,2.7c0,1.9-1,3.7-2.7,4.7
		l-23.8,13.7l45.4,169.6h27.5L790.2,393.5L790.2,393.5z M83.6,529.7l0.2-0.1l-22.1-82.5l21.7,37.7l0,44.9L83.6,529.7l0.2-0.1
		L83.6,529.7h0.2v-45l-23.2-40.2l23.2,86.7v-1.4H83.6z M83.6,458.9l0.2-0.1l-30.1-52.1h29.7v52.2H83.6l0.2-0.1L83.6,458.9h0.2v-52.6
		H53l30.8,53.3v-0.7H83.6z M83.6,393.5v-0.2H53.7l29.7-51.5v51.7H83.6v-0.2V393.5h0.2v-53.1L53,393.7h30.8v-0.2H83.6z M83.6,315.2
		l-0.2-0.1l-21.8,37.7l21.7-81.1v43.5H83.6l-0.2-0.1L83.6,315.2h0.2v-46.4l-22.9,85.3l-0.4,1.4l23.2-40.2v-0.1H83.6z M670.6,190.9
		l0.1-0.2l-38.9-22.5L610,130.6l60.4,60.4L670.6,190.9l0.1-0.2L670.6,190.9l0.1-0.1l-62.4-62.4l23.2,40.2l40.2,23.2l-1-1
		L670.6,190.9z M697,221.1l-0.1-0.2l-26,15l-25.8-44.6l51.8,29.9L697,221.1l-0.1-0.2L697,221.1l0.1-0.2l-53-30.6l26.6,46.1
		l26.6-15.4l-0.3-0.2L697,221.1z M578.9,103l-0.2,0.1l29.9,51.8l-44.6-25.8l15-26L578.9,103l-0.2,0.1L578.9,103l-0.2-0.1l-15.2,26.4
		l46.2,26.7l-30.8-53.3l-0.2,0.3L578.9,103z M552.6,122.8l0.1-0.2l-44.8-25.8h59.5l-15,25.9L552.6,122.8l0.1-0.2L552.6,122.8
		l0.2,0.1L568,96.4h-61.5l46.1,26.6l0.1-0.2L552.6,122.8z M529.7,83.6v-0.2h-44.9l-37.7-21.7l82.5,22.1L529.7,83.6v-0.2V83.6l0-0.2
		l-85.3-22.8l40.2,23.2h46.4l-1.4-0.4L529.7,83.6z M406.5,53.3l-0.1,0.2l51.8,29.9h-51.5V53.3H406.5l-0.1,0.2L406.5,53.3h-0.2v30.4
		h53.3L406.3,53v0.3H406.5z M354.2,61.1l-0.1-0.2l-38.9,22.5h-43.5l82.5-22.1L354.2,61.1l-0.1-0.2L354.2,61.1l0-0.2l-83.9,22.5
		l-1.4,0.4h46.4l40.2-23.2l-1.4,0.4L354.2,61.1z M393.5,53.3h-0.2v30.1h-51.5l51.8-29.9L393.5,53.3h-0.2H393.5l-0.1-0.2l-53,30.6
		h53.3V53l-0.3,0.2L393.5,53.3z M292.8,96.6l-0.1-0.2l-45.2,26.1l-14.9-25.8l60.2,0V96.6l-0.1-0.2L292.8,96.6v-0.2H232l15.4,26.6
		l46.2-26.6h-0.7L292.8,96.6L292.8,96.6z M221.1,103l-0.2,0.1l15,26l-44.6,25.8l29.9-51.8L221.1,103l-0.2,0.1L221.1,103l-0.2-0.1
		l-30.6,53l46.2-26.6l-15.4-26.6l-0.2,0.3L221.1,103z M190.9,129.4l-0.2-0.1l-22.5,38.9L130.6,190l60.4-60.4L190.9,129.4l-0.2-0.1
		L190.9,129.4l-0.1-0.1l-62.4,62.4l40.2-23.2l23.2-40.2l-1,1L190.9,129.4z M155.4,190.8l-0.2-0.1l-26.1,45.2l-25.8-14.9l52.1-30.1
		L155.4,190.8l-0.2-0.1L155.4,190.8l-0.1-0.2l-52.7,30.4l26.6,15.4l26.6-46.2l-0.6,0.4L155.4,190.8z M96.6,232.3l-0.1,0.2l26,15
		l-25.8,44.6v-59.8L96.6,232.3l-0.1,0.2L96.6,232.3h-0.2v61.2l26.6-46.2L96.4,232v0.3L96.6,232.3L96.6,232.3z M96.6,507.2l-0.2,0.1
		l26.1,45.2l-25.8,14.9v-60.2L96.6,507.2l-0.2,0.1L96.6,507.2h-0.2V568l26.6-15.4l-26.6-46.1v0.7H96.6z M129.2,563.8l-0.2,0.1
		l25.8,44.8l-51.5-29.7l25.9-15L129.2,563.8l-0.2,0.1L129.2,563.8l-0.1-0.2l-26.5,15.3l53.3,30.8l-26.7-46.2l-0.2,0.1L129.2,563.8z
		 M129.4,609.1l-0.1,0.2l38.9,22.5l21.7,37.7L129.6,609L129.4,609.1l-0.1,0.2L129.4,609.1l-0.1,0.1l62.5,62.5l-23.3-40.3l-40.2-23.2
		l1,1L129.4,609.1z M221.1,697l0.2-0.1l-29.9-51.8l44.6,25.8l-15,26L221.1,697l0.2-0.1L221.1,697l0.2,0.1l15.2-26.4l-46.1-26.6
		l30.8,53.3l0.2-0.3L221.1,697z M247.4,677.2l-0.1,0.2l44.8,25.8h-59.5l15-25.9L247.4,677.2l-0.1,0.2L247.4,677.2l-0.2-0.1
		L232,703.6h61.5L247.3,677l-0.1,0.2L247.4,677.2z M270.2,716.4v0.2h44.9l37.7,21.7l-82.5-22.1L270.2,716.4v0.2V716.4l-0.1,0.2
		l83.9,22.5l1.4,0.4l-40.3-23.2h-46.4l1.3,0.4L270.2,716.4z M393.5,746.7l0.1-0.2l-51.8-29.9h51.5l0,30.1H393.5l0.1-0.2L393.5,746.7
		h0.2v-30.4h-53.3l53.3,30.8v-0.3H393.5z M445.8,738.9l0.1,0.2l38.9-22.5h43.5l-82.5,22.1L445.8,738.9l0.1,0.2L445.8,738.9l0,0.2
		l85.3-22.9h-46.4l-40.2,23.2l1.4-0.4L445.8,738.9z M406.5,746.7h0.2v-30.1h51.5l-51.8,29.9L406.5,746.7h0.2H406.5l0.1,0.2l53-30.6
		h-53.3V747l0.3-0.2L406.5,746.7z M507.2,703.4l0.1,0.2l45.2-26.1l14.9,25.8h-60.2L507.2,703.4l0.1,0.2L507.2,703.4v0.2H568
		L552.7,677l-46.2,26.6h0.7L507.2,703.4L507.2,703.4z M578.9,697l0.2-0.1l-15-26l44.6-25.8l-29.9,51.8L578.9,697l0.2-0.1L578.9,697
		l0.2,0.1l30.6-53l-46.1,26.6l15.4,26.6l0.2-0.3L578.9,697z M609.1,670.6l0.2,0.1l22.5-38.9l37.7-21.7L609,670.4L609.1,670.6
		l0.2,0.1L609.1,670.6l0.1,0.1l62.4-62.5l-40.2,23.2l-23.2,40.2l1-1L609.1,670.6z M644.6,609.2l0.2,0.1l26.1-45.2l25.8,14.9
		L644.5,609L644.6,609.2l0.2,0.1L644.6,609.2l0.1,0.2l52.7-30.4l-26.6-15.4l-26.6,46.2l0.6-0.4L644.6,609.2z M703.4,567.7l0.1-0.2
		l-26-15l25.8-44.6l0,59.8H703.4l0.1-0.2L703.4,567.7h0.2v-61.2L677,552.7l26.6,15.4v-0.3H703.4z M703.4,393.5v-0.2h-8.4
		c-3.2,0-5.8,2.6-5.8,5.8v1.7c0,3.2,2.6,5.8,5.8,5.8h8.2v74.6L666,545.9l-7.1-4.1c-0.9-0.5-1.9-0.8-2.9-0.8c-2,0-4,1-5.1,2.9
		l-0.8,1.4c-0.5,0.9-0.8,1.9-0.8,2.9c0,0.5,0.1,1,0.2,1.5c0.4,1.5,1.4,2.8,2.7,3.5l7.1,4.1L622,622l-64.6,37.3l-4.1-7.1
		c-1.1-1.9-3-2.9-5.1-2.9c-1,0-2,0.3-2.9,0.8l-1.4,0.8c-1.3,0.8-2.3,2-2.7,3.5c-0.1,0.5-0.2,1-0.2,1.5c0,1,0.3,2,0.8,2.9l4.1,7.1
		l-64.6,37.3h-74.6l0-8.2c0-3.2-2.6-5.8-5.8-5.8h-1.7c-3.2,0-5.8,2.6-5.8,5.8v8.2h-74.6L254.1,666l4.1-7.1c0.5-0.9,0.8-1.9,0.8-2.9
		c0-2-1-4-2.9-5.1l-1.4-0.8c-0.9-0.5-1.9-0.8-2.9-0.8c-0.5,0-1,0.1-1.5,0.2c-1.5,0.4-2.8,1.4-3.5,2.7l-4.1,7.1L178,622l-37.3-64.6
		l7.1-4.1c1.3-0.8,2.3-2,2.7-3.5c0.1-0.5,0.2-1,0.2-1.5c0-1-0.3-2-0.8-2.9l-0.8-1.4c-1.1-1.9-3-2.9-5.1-2.9c-1,0-2,0.3-2.9,0.8
		l-7.1,4.1l-37.3-64.6v-74.6l8.2,0c3.2,0,5.8-2.6,5.8-5.8v-1.7c0-3.2-2.6-5.8-5.8-5.8h-8.2v-74.6l37.3-64.6l7.1,4.1
		c0.9,0.5,1.9,0.8,2.9,0.8c0.5,0,1-0.1,1.5-0.2c1.5-0.4,2.8-1.4,3.5-2.7l0.8-1.4c0.5-0.9,0.8-1.9,0.8-2.9c0-2-1-4-2.9-5.1l-7.1-4.1
		L178,178l64.6-37.3l4.1,7.1c1.1,1.9,3,2.9,5.1,2.9c1,0,2-0.3,2.9-0.8l1.4-0.8c1.3-0.8,2.3-2,2.7-3.5c0.1-0.5,0.2-1,0.2-1.5
		c0-1-0.3-2-0.8-2.9l-4.1-7.1l64.6-37.3h74.6l0,8.2c0,3.2,2.6,5.8,5.8,5.8h1.7c3.2,0,5.8-2.6,5.8-5.8v-8.2h74.6l64.6,37.3l-4.1,7.1
		c-0.5,0.9-0.8,1.9-0.8,2.9c0,0.5,0.1,1,0.2,1.5c0.4,1.5,1.4,2.8,2.7,3.5l1.4,0.8c0.9,0.5,1.9,0.8,2.9,0.8c2,0,4-1,5.1-2.9l4.1-7.1
		L622,178l37.3,64.6l-7.1,4.1c-1.9,1.1-2.9,3-2.9,5.1c0,1,0.3,2,0.8,2.9l0.8,1.4c0.8,1.3,2,2.3,3.5,2.7c0.5,0.1,1,0.2,1.5,0.2
		c1,0,2-0.3,2.9-0.8l7.1-4.1l37.3,64.6v74.8L703.4,393.5v-0.2V393.5h0.2v-74.9l-37.5-65l-7.4,4.3c-0.8,0.5-1.8,0.7-2.7,0.7
		c-0.5,0-0.9-0.1-1.4-0.2c-1.4-0.4-2.6-1.3-3.3-2.5l-0.8-1.4c-0.5-0.9-0.7-1.8-0.7-2.7c0-1.9,1-3.7,2.7-4.7l7.4-4.3l-37.5-65
		l-65-37.5l-4.3,7.4c-1,1.8-2.8,2.7-4.7,2.7c-0.9,0-1.9-0.2-2.7-0.7l-1.4-0.8c-1.3-0.7-2.2-1.9-2.5-3.3c-0.1-0.5-0.2-0.9-0.2-1.4
		c0-1,0.3-1.9,0.7-2.7l4.3-7.4l-65-37.5h-75.1v8.5c0,3-2.4,5.5-5.5,5.5h-1.7c-3,0-5.5-2.4-5.5-5.5v-8.5h-75.1l-65,37.5l4.3,7.4
		c0.5,0.8,0.7,1.8,0.7,2.7c0,0.5-0.1,1-0.2,1.4c-0.4,1.4-1.3,2.6-2.5,3.3l-1.4,0.8c-0.9,0.5-1.8,0.7-2.7,0.7c-1.9,0-3.7-1-4.7-2.7
		l-4.3-7.4l-65,37.5l-37.5,65l7.4,4.3c1.7,1,2.7,2.8,2.7,4.7c0,0.9-0.2,1.9-0.7,2.7l-0.8,1.4c-0.7,1.3-1.9,2.2-3.3,2.5
		c-0.5,0.1-0.9,0.2-1.4,0.2c-1,0-1.9-0.2-2.7-0.7l-7.4-4.3l-37.5,65v75.1h8.5c3,0,5.5,2.4,5.5,5.5v1.7c0,3-2.4,5.5-5.5,5.5h-8.5
		v75.1l37.5,65l7.4-4.3c0.9-0.5,1.8-0.7,2.7-0.7c1.9,0,3.7,1,4.7,2.7l0.8,1.4c0.5,0.8,0.7,1.8,0.7,2.7c0,0.5-0.1,0.9-0.2,1.4
		c-0.4,1.4-1.3,2.6-2.5,3.3l-7.4,4.3l37.5,65l65,37.5l4.3-7.4c0.7-1.3,1.9-2.2,3.3-2.5c0.5-0.1,0.9-0.2,1.4-0.2c1,0,1.9,0.2,2.7,0.7
		l1.4,0.8c1.7,1,2.7,2.8,2.7,4.7c0,0.9-0.2,1.9-0.7,2.7l-4.3,7.4l65,37.5h75.1v-8.5c0-3,2.4-5.5,5.5-5.5h1.7c3,0,5.5,2.4,5.5,5.5
		v8.5h75.1l65-37.5l-4.3-7.4c-0.5-0.8-0.7-1.8-0.7-2.7c0-0.5,0.1-0.9,0.2-1.4c0.4-1.4,1.3-2.6,2.5-3.3l1.4-0.8
		c0.9-0.5,1.8-0.7,2.7-0.7c1.9,0,3.7,1,4.7,2.7l4.3,7.4l65-37.5l37.5-65l-7.4-4.3c-1.3-0.7-2.2-1.9-2.5-3.3
		c-0.1-0.5-0.2-0.9-0.2-1.4c0-1,0.3-1.9,0.7-2.7l0.8-1.4c1-1.8,2.8-2.7,4.7-2.7c0.9,0,1.9,0.2,2.7,0.7l7.4,4.3l37.5-65v-75.1h-8.5
		c-3,0-5.5-2.4-5.5-5.5v-1.7c0-3,2.4-5.5,5.5-5.5h8.5v-0.2L703.4,393.5L703.4,393.5z M703.4,292.8l0.2-0.1l-26.1-45.2l25.8-14.9
		l0,60.2H703.4l0.2-0.1L703.4,292.8h0.2V232L677,247.3l26.6,46.2v-0.7L703.4,292.8L703.4,292.8z M716.4,270.3l-0.2,0l22.1,82.5
		l-21.7-37.7v-44.9L716.4,270.3l-0.2,0L716.4,270.3h-0.2v45l23.2,40.3l-22.9-85.3l-0.4-1.4v1.4H716.4z M716.4,529.7h0.2v-44.9
		l21.7-37.7l-22.1,82.5L716.4,529.7h0.2H716.4l0.2,0l22.8-85.3l-23.2,40.2v46.4l0.4-1.4L716.4,529.7z M716.4,458.9h0.2v-52.2l29.7,0
		l-30.1,52.1L716.4,458.9h0.2H716.4l0.2,0.1l30.4-52.7l-30.8,0v53.3l0.4-0.6L716.4,458.9z M716.4,393.5h0.2v-51.7l29.7,51.5l-29.9,0
		L716.4,393.5h0.2H716.4v0.2l30.6,0l-30.8-53.3v53.3h0.2V393.5z"></path>
</g>
<g font-family="noto" id="svgTXT" font-size="150"><text x="51%" y="56.75000000000001%" fill="000000" text-anchor="middle" font-weight="bolder" style="fill: rgb(0, 0, 0);">I　T　N</text></g></svg>
